<svg width="334" height="338" viewBox="0 0 334 338" fill="none" xmlns="http://www.w3.org/2000/svg">
<path d="M246.191 320.7C212.186 337.822 172.891 342.254 134.998 333.24C97.1053 324.223 62.9601 302.321 38.3801 271.26C13.7999 240.202 0.306011 201.906 0.197528 162.902C0.0890453 123.897 13.3726 86.5953 37.7846 57.3533C62.1968 28.111 96.2275 8.73728 134.078 2.53321C171.928 -3.67116 211.256 3.67816 245.363 23.3284C279.467 42.9789 306.24 73.7145 321.116 110.299C335.993 146.882 338.053 187.051 326.948 223.961L312.776 219.096C322.896 185.459 321.017 148.852 307.458 115.512C293.902 82.172 269.504 54.162 238.422 36.2538C207.341 18.346 171.5 11.6485 137.006 17.3026C102.512 22.9567 71.4988 40.6125 49.2514 67.2618C27.004 93.9108 14.8983 127.905 14.9971 163.451C15.0962 198.997 27.3935 233.896 49.7938 262.201C72.1944 290.509 103.312 310.468 137.845 318.684C172.377 326.901 208.188 322.861 239.177 307.256L246.191 320.7Z" fill="#16163B"/>
<path d="M150.243 75.133V33.6315H157.794L170.74 56.984L174.991 65.8047H175.245C175.076 63.6471 174.864 61.3415 174.611 58.8878C174.399 56.3917 174.293 53.9803 174.293 51.6535V33.6315H181.337V75.133H173.786L160.84 51.7805L156.589 42.9598H156.335C156.504 45.1597 156.694 47.4653 156.906 49.8767C157.16 52.2881 157.287 54.6572 157.287 56.984V75.133H150.243Z" fill="black"/>
<path d="M33.8006 203.355L25.551 161.854H33.1025L36.7196 182.795C37.0581 185.037 37.3965 187.258 37.7349 189.458C38.0734 191.658 38.4118 193.858 38.7503 196.058H39.0041C39.4695 193.858 39.9137 191.658 40.3367 189.458C40.8021 187.216 41.2674 184.995 41.7328 182.795L46.8094 161.854H53.2187L58.2953 182.795C58.7607 184.953 59.226 187.153 59.6914 189.395C60.1567 191.595 60.6221 193.816 61.0875 196.058H61.3413C61.6797 193.816 61.997 191.595 62.2932 189.395C62.6316 187.195 62.97 184.995 63.3085 182.795L66.9256 161.854H73.9694L66.0372 203.355H56.8992L51.7591 181.526C51.4207 179.918 51.0823 178.332 50.7438 176.767C50.4477 175.159 50.1727 173.551 49.9189 171.944H49.665C49.3689 173.551 49.0516 175.159 48.7132 176.767C48.417 178.332 48.0997 179.918 47.7613 181.526L42.7481 203.355H33.8006Z" fill="black"/>
<path d="M174.756 311.595C171.964 311.595 169.256 311.067 166.633 310.009C164.052 308.951 161.768 307.449 159.78 305.503L164.095 300.49C165.575 301.886 167.268 303.029 169.171 303.917C171.075 304.763 172.979 305.186 174.883 305.186C177.252 305.186 179.05 304.7 180.276 303.727C181.503 302.754 182.117 301.463 182.117 299.856C182.117 299.009 181.948 298.29 181.609 297.698C181.313 297.106 180.869 296.598 180.276 296.175C179.727 295.71 179.05 295.287 178.246 294.906C177.484 294.525 176.638 294.144 175.708 293.764L169.996 291.289C168.981 290.866 167.966 290.337 166.95 289.702C165.977 289.068 165.089 288.306 164.285 287.418C163.481 286.529 162.826 285.493 162.318 284.308C161.853 283.124 161.62 281.77 161.62 280.247C161.62 278.597 161.958 277.074 162.635 275.678C163.354 274.24 164.327 272.992 165.554 271.934C166.781 270.876 168.241 270.052 169.933 269.459C171.667 268.867 173.55 268.571 175.581 268.571C177.992 268.571 180.319 269.057 182.561 270.03C184.803 270.961 186.728 272.23 188.336 273.838L184.592 278.534C183.238 277.434 181.842 276.567 180.403 275.932C178.965 275.297 177.357 274.98 175.581 274.98C173.592 274.98 172.006 275.424 170.821 276.313C169.637 277.159 169.044 278.343 169.044 279.866C169.044 280.67 169.214 281.368 169.552 281.96C169.933 282.51 170.419 283.018 171.012 283.483C171.646 283.907 172.365 284.308 173.169 284.689C173.973 285.028 174.798 285.366 175.644 285.704L181.292 288.052C182.519 288.56 183.64 289.152 184.655 289.829C185.67 290.506 186.538 291.289 187.257 292.177C188.018 293.066 188.611 294.102 189.034 295.287C189.457 296.429 189.668 297.762 189.668 299.284C189.668 300.977 189.33 302.563 188.653 304.044C187.976 305.525 186.982 306.836 185.67 307.978C184.401 309.078 182.836 309.967 180.975 310.643C179.155 311.278 177.082 311.595 174.756 311.595Z" fill="black"/>
<path d="M282.292 203.355V161.854H307.294V168.073H289.653V178.67H304.566V184.889H289.653V197.137H307.929V203.355H282.292Z" fill="black"/>
</svg>
