<svg width="107" height="107" viewBox="0 0 107 107" fill="none" xmlns="http://www.w3.org/2000/svg">
<path d="M53.4925 104.985C81.9311 104.985 104.985 81.9311 104.985 53.4925C104.985 25.054 81.9311 2 53.4925 2C25.054 2 2 25.054 2 53.4925C2 81.9311 25.054 104.985 53.4925 104.985Z" fill="#9697B6"/>
<path d="M53.4925 104.985C81.9311 104.985 104.985 81.9311 104.985 53.4925C104.985 25.054 81.9311 2 53.4925 2C25.054 2 2 25.054 2 53.4925C2 81.9311 25.054 104.985 53.4925 104.985Z" stroke="#3F405F" stroke-width="4" stroke-miterlimit="10"/>
<path d="M53.4925 58.6418C56.3364 58.6418 58.6418 56.3364 58.6418 53.4925C58.6418 50.6487 56.3364 48.3433 53.4925 48.3433C50.6487 48.3433 48.3433 50.6487 48.3433 53.4925C48.3433 56.3364 50.6487 58.6418 53.4925 58.6418Z" fill="#3F405F"/>
</svg>
