<svg width="378" height="378" viewBox="0 0 378 378" fill="none" xmlns="http://www.w3.org/2000/svg">
<g clip-path="url(#clip0)">
<path d="M115.62 252.533H262.05L188.835 136.101L115.62 252.533Z" fill="black"/>
<path d="M277.395 0H100.275C44.983 0 0 44.984 0 100.276V277.394C0 332.686 44.983 377.669 100.275 377.669H277.394C332.686 377.669 377.669 332.686 377.669 277.394V100.276C377.67 44.984 332.687 0 277.395 0ZM324.683 287.136C319.357 296.777 309.12 302.533 297.302 302.533H80.368C68.55 302.533 58.313 296.777 52.987 287.136C47.66 277.495 48.236 265.766 54.527 255.761L162.347 84.295C168.326 74.788 178.227 69.111 188.834 69.111C199.441 69.111 209.343 74.788 215.321 84.296L323.14 255.76C329.434 265.766 330.01 277.495 324.683 287.136Z" fill="black"/>
</g>
<defs>
<clipPath id="clip0">
<rect width="377.67" height="377.67" fill="white"/>
</clipPath>
</defs>
</svg>
