<svg width="178" height="178" viewBox="0 0 178 178" fill="none" xmlns="http://www.w3.org/2000/svg">
<g id="Group">
<path id="Vector" d="M54.493 119.022H123.507L89 64.1459L54.493 119.022Z" fill="black"/>
<path id="Vector_2" d="M130.739 0H47.2607C21.201 0 0 21.2015 0 47.2612V130.739C0 156.799 21.201 178 47.2607 178H130.739C156.799 178 178 156.799 178 130.739V47.2612C178 21.2015 156.799 0 130.739 0ZM153.027 135.33C150.516 139.874 145.692 142.587 140.122 142.587H37.8783C32.3084 142.587 27.4836 139.874 24.9734 135.33C22.4627 130.786 22.7342 125.258 25.6992 120.543L76.5159 39.7292C79.3339 35.2484 84.0003 32.5728 88.9995 32.5728C93.9987 32.5728 98.6656 35.2484 101.483 39.7296L152.299 120.542C155.266 125.258 155.537 130.786 153.027 135.33Z" fill="black"/>
</g>
</svg>
