<?xml version="1.0" encoding="iso-8859-1"?>
<!-- Generator: Adobe Illustrator 17.1.0, SVG Export Plug-In . SVG Version: 6.00 Build 0)  -->
<!DOCTYPE svg PUBLIC "-//W3C//DTD SVG 1.1//EN" "http://www.w3.org/Graphics/SVG/1.1/DTD/svg11.dtd">
<svg version="1.1" id="Capa_1" xmlns="http://www.w3.org/2000/svg" xmlns:xlink="http://www.w3.org/1999/xlink" x="0px" y="0px"
	 viewBox="0 0 377.67 377.67" style="enable-background:new 0 0 377.67 377.67;" xml:space="preserve">
<g>
	<polygon points="115.62,252.533 262.05,252.533 188.835,136.101 	"/>
	<path d="M277.395,0H100.275C44.983,0,0,44.984,0,100.276v177.118c0,55.292,44.983,100.275,100.275,100.275h177.119
		c55.292,0,100.275-44.983,100.275-100.275V100.276C377.67,44.984,332.687,0,277.395,0z M324.683,287.136
		c-5.326,9.641-15.563,15.397-27.381,15.397H80.368c-11.818,0-22.055-5.756-27.381-15.397c-5.327-9.641-4.751-21.37,1.54-31.375
		l107.82-171.466c5.979-9.507,15.88-15.184,26.487-15.184s20.509,5.677,26.487,15.185l107.819,171.464
		C329.434,265.766,330.01,277.495,324.683,287.136z"/>
</g>
<g>
</g>
<g>
</g>
<g>
</g>
<g>
</g>
<g>
</g>
<g>
</g>
<g>
</g>
<g>
</g>
<g>
</g>
<g>
</g>
<g>
</g>
<g>
</g>
<g>
</g>
<g>
</g>
<g>
</g>
</svg>
