<svg width="291" height="146" viewBox="0 0 291 146" fill="none" xmlns="http://www.w3.org/2000/svg">
<path d="M1.16151 97.4625C1.16151 97.4625 45.3834 2.10917 141.428 0.0362617C237.472 -2.03664 289.985 85.3706 290.676 106.445C291.367 127.52 251.291 111.282 251.291 111.282C251.291 111.282 228.144 99.8924 182.886 134.089C137.627 168.287 76.4768 115.428 75.0949 115.428C73.713 115.428 59.5482 106.1 13.5989 119.573C13.5989 119.573 -4.71169 120.61 1.16151 97.4625Z" fill="#9697B6"/>
<path d="M83.041 66.0235C87.2635 62.3927 91.8557 59.2153 96.7419 56.5436C101.636 53.8232 106.739 51.4953 112.002 49.582C127.968 43.5626 145.232 41.831 162.076 44.5597C167.656 45.5106 173.14 46.9624 178.459 48.8977C188.98 52.7744 198.683 58.5827 207.069 66.0235C197.447 60.9567 187.324 56.9038 176.863 53.9301C171.693 52.6116 166.448 51.6033 161.157 50.9108C155.876 50.2969 150.562 50.0175 145.246 50.0744C134.55 50.3411 123.922 51.8598 113.579 54.5994C108.383 55.9956 103.215 57.6169 98.1321 59.541C92.9892 61.4298 87.9515 63.5938 83.041 66.0235V66.0235Z" fill="#3F405F"/>
<path d="M144.426 106.473L152.364 92.7268H136.49L144.426 106.473Z" fill="#3F405F"/>
<path d="M144.426 106.473L152.364 92.7268H136.49L144.426 106.473Z" stroke="#3F405F" stroke-miterlimit="10"/>
</svg>
