<svg width="192" height="102" viewBox="0 0 192 102" fill="none" xmlns="http://www.w3.org/2000/svg">
<path d="M65.5 101.674C65.5 101.674 54.5 104 40 93.7651L11 67.5L1.00001 49.5L14.5 33.7521L41.5 8.63034C41.5 8.63034 39.909 2.11733 59 0.256429L126.853 0.256426C126.853 0.256426 144.476 -1.60444 151.818 8.63034L180.21 33.7521C180.21 33.7521 202.238 51.4304 180.21 68.6434L152.308 93.7651C152.308 93.7651 144.965 102.139 126.853 101.674L65.5 101.674Z" fill="#9697B6"/>
<path d="M124 97.5743C125.836 97.3255 127.671 97.1248 129.507 96.8983L135.014 96.3008C136.849 96.0907 138.685 95.9388 140.521 95.755L146.027 95.2327L144.341 95.8803L185.043 58.6787L184.595 59.2363C184.876 58.7312 185.203 58.0513 185.465 57.4324C185.74 56.7991 185.992 56.1523 186.202 55.5019C186.633 54.2309 186.932 52.9221 187.094 51.5946C187.228 50.3746 187.149 49.1416 186.858 47.9468C186.764 47.6786 186.711 47.3892 186.598 47.1338C186.471 46.8863 186.35 46.6371 186.236 46.3841C186.105 46.1409 185.914 45.9368 185.766 45.7056C185.689 45.5822 185.602 45.4643 185.507 45.3528L185.146 44.9569C183.205 42.835 180.988 40.6616 178.825 38.542C176.65 36.41 174.445 34.2935 172.235 32.1819C167.815 27.9585 163.368 23.7547 158.895 19.5706L152.185 13.2978L148.824 10.1679L147.14 8.60582C146.577 8.08756 145.976 7.60496 145.418 7.08379L147.077 7.74936C146.113 7.71561 145.152 7.55607 144.19 7.45157L141.305 7.10348L135.535 6.39694C131.689 5.89833 127.844 5.39523 124 4.81318C127.869 4.41842 131.737 4.10267 135.604 3.79134L141.404 3.36582L144.304 3.1583C145.27 3.1006 146.238 2.98786 147.202 3.00096L148.149 3.0138L148.861 3.66661C149.428 4.18649 149.95 4.74609 150.51 5.26998L152.195 6.83623L155.562 9.9707L162.282 16.253C166.755 20.4486 171.213 24.6628 175.655 28.8956C177.874 31.0162 180.088 33.1406 182.285 35.2947C184.491 37.4611 186.656 39.5689 188.838 41.9543L189.248 42.4051C189.383 42.5451 189.533 42.7792 189.673 42.9635C189.948 43.3604 190.257 43.7435 190.487 44.162L191.111 45.4517C191.297 45.8866 191.404 46.3377 191.546 46.7824C191.98 48.5075 192.104 50.2912 191.912 52.0563C191.717 53.708 191.349 55.3367 190.814 56.9178C190.56 57.6979 190.265 58.4574 189.94 59.2073C189.612 59.9818 189.244 60.7398 188.835 61.4783L188.668 61.7782L188.387 62.0361L147.714 99.268L146.915 99.9999L146.027 99.9157L140.52 99.3934C138.685 99.2096 136.849 99.0577 135.014 98.8477L129.507 98.2501C127.671 98.0237 125.836 97.823 124 97.5743Z" fill="#3F405F"/>
<path d="M68 97.5743C66.1644 97.3255 64.3287 97.1248 62.4931 96.8983L56.9862 96.3008C55.1507 96.0907 53.315 95.9388 51.4794 95.755L45.9725 95.2327L47.6593 95.8803L6.95671 58.6787L7.40496 59.2363C7.12391 58.7312 6.79719 58.0513 6.53453 57.4324C6.25969 56.7991 6.00829 56.1523 5.79805 55.5019C5.36696 54.2309 5.06828 52.9221 4.90638 51.5946C4.77167 50.3746 4.85133 49.1416 5.14206 47.9468C5.23615 47.6786 5.28891 47.3892 5.40241 47.1338C5.52921 46.8863 5.64952 46.6371 5.76425 46.3841C5.89534 46.1409 6.08564 45.9368 6.23393 45.7056C6.31121 45.5822 6.39769 45.4643 6.49271 45.3528L6.8543 44.9569C8.79468 42.835 11.0121 40.6616 13.1753 38.542C15.3497 36.41 17.5552 34.2935 19.7646 32.1819C24.1851 27.9585 28.6317 23.7547 33.1046 19.5706L39.8146 13.2978L43.1764 10.1679L44.8599 8.60582C45.4228 8.08756 46.0238 7.60496 46.5814 7.08379L44.9231 7.74936C45.887 7.71561 46.8476 7.55607 47.8096 7.45157L50.6947 7.10348L56.4646 6.39694C60.3105 5.89833 64.1563 5.39523 68 4.81318C64.1305 4.41842 60.263 4.10267 56.3957 3.79134L50.5958 3.36582L47.696 3.1583C46.7297 3.1006 45.762 2.98786 44.7976 3.00096L43.8508 3.0138L43.139 3.66661C42.5722 4.18649 42.0499 4.74609 41.4895 5.26998L39.8048 6.83623L36.4381 9.9707L29.718 16.253C25.2445 20.4486 20.7868 24.6628 16.3449 28.8956C14.1262 31.0162 11.9124 33.1406 9.71535 35.2947C7.50876 37.4611 5.34346 39.5689 3.16149 41.9543L2.75216 42.4051C2.61742 42.5451 2.4667 42.7792 2.32677 42.9635C2.05164 43.3604 1.74335 43.7435 1.5127 44.162L0.888979 45.4517C0.70296 45.8866 0.596407 46.3377 0.454232 46.7824C0.0195848 48.5075 -0.104371 50.2912 0.0877143 52.0563C0.282981 53.708 0.651016 55.3367 1.18623 56.9178C1.43994 57.6979 1.73502 58.4574 2.05996 59.2073C2.38763 59.9818 2.7564 60.7398 3.16483 61.4783L3.33149 61.7782L3.61323 62.0361L44.2856 99.268L45.0851 99.9999L45.9726 99.9157L51.4795 99.3934C53.3151 99.2096 55.1508 99.0577 56.9863 98.8477L62.4932 98.2501C64.3287 98.0237 66.1644 97.823 68 97.5743Z" fill="#3F405F"/>
<path d="M14.6296 52.8892L27.964 64.5477C28.2293 64.7796 28.5554 64.93 28.9035 64.9808C29.2515 65.0317 29.6067 64.9809 29.9268 64.8344C30.2468 64.6879 30.5182 64.4521 30.7085 64.1549C30.8988 63.8577 31 63.5118 31 63.1585L31 39.8415C31 39.4881 30.8988 39.1423 30.7085 38.8451C30.5182 38.5479 30.2468 38.3121 29.9268 38.1656C29.6067 38.0192 29.2515 37.9683 28.9035 38.0192C28.5554 38.07 28.2293 38.2204 27.964 38.4523L14.6296 50.1108C14.4319 50.2837 14.2734 50.4971 14.1648 50.7368C14.0562 50.9764 14 51.2367 14 51.5C14 51.7633 14.0562 52.0236 14.1648 52.2632C14.2734 52.5029 14.4319 52.7163 14.6296 52.8892V52.8892Z" fill="#3F405F"/>
<path d="M177.37 52.8892L164.036 64.5477C163.771 64.7796 163.445 64.93 163.097 64.9808C162.749 65.0317 162.393 64.9809 162.073 64.8344C161.753 64.6879 161.482 64.4521 161.292 64.1549C161.101 63.8577 161 63.5118 161 63.1585L161 39.8415C161 39.4881 161.101 39.1423 161.292 38.8451C161.482 38.5479 161.753 38.3121 162.073 38.1656C162.393 38.0192 162.749 37.9683 163.097 38.0192C163.445 38.07 163.771 38.2204 164.036 38.4523L177.37 50.1108C177.568 50.2837 177.727 50.4971 177.835 50.7368C177.944 50.9764 178 51.2367 178 51.5C178 51.7633 177.944 52.0236 177.835 52.2632C177.727 52.5029 177.568 52.7163 177.37 52.8892V52.8892Z" fill="#3F405F"/>
<path d="M14.6296 52.8892L27.964 64.5477C28.2293 64.7796 28.5554 64.93 28.9035 64.9808C29.2515 65.0317 29.6067 64.9809 29.9268 64.8344C30.2468 64.6879 30.5182 64.4521 30.7085 64.1549C30.8988 63.8577 31 63.5118 31 63.1585L31 39.8415C31 39.4881 30.8988 39.1423 30.7085 38.8451C30.5182 38.5479 30.2468 38.3121 29.9268 38.1656C29.6067 38.0192 29.2515 37.9683 28.9035 38.0192C28.5554 38.07 28.2293 38.2204 27.964 38.4523L14.6296 50.1108C14.4319 50.2837 14.2734 50.4971 14.1648 50.7368C14.0562 50.9764 14 51.2367 14 51.5C14 51.7633 14.0562 52.0236 14.1648 52.2632C14.2734 52.5029 14.4319 52.7163 14.6296 52.8892V52.8892Z" stroke="#3F405F" stroke-miterlimit="10"/>
<path d="M177.37 52.8892L164.036 64.5477C163.771 64.7796 163.445 64.93 163.097 64.9808C162.749 65.0317 162.393 64.9809 162.073 64.8344C161.753 64.6879 161.482 64.4521 161.292 64.1549C161.101 63.8577 161 63.5118 161 63.1585L161 39.8415C161 39.4881 161.101 39.1423 161.292 38.8451C161.482 38.5479 161.753 38.3121 162.073 38.1656C162.393 38.0192 162.749 37.9683 163.097 38.0192C163.445 38.07 163.771 38.2204 164.036 38.4523L177.37 50.1108C177.568 50.2837 177.727 50.4971 177.835 50.7368C177.944 50.9764 178 51.2367 178 51.5C178 51.7633 177.944 52.0236 177.835 52.2632C177.727 52.5029 177.568 52.7163 177.37 52.8892V52.8892Z" stroke="#3F405F" stroke-miterlimit="10"/>
</svg>
